# xmcd
#
# Track frame offsets: 
#        183
#        16158
#        48333
#        72858
#        85345
#        106233
#        128508
#        149433
#        167133
#        185283
#        200883
#        218695
#        234408
#
# Disc length: 3288 seconds
#
# Revision: 0
# Processed by: cddbd v1.5.1PL0 Copyright (c) Steve Scherf et al.
# Submitted via: ExactAudioCopy v0.95a5
#
DISCID=b00cd60d
DTITLE=Mark Hummel - Sunny Day Blues
DYEAR=1990
DGENRE=Blues
TTITLE0=Little By Little
TTITLE1=Sunny Day Blues
TTITLE2=I Don't Need Another Heartache
TTITLE3=Mister 2/3
TTITLE4=Easy
TTITLE5=My Baby's Gone
TTITLE6=Evil Gail Blues
TTITLE7=It Ain't What You Say
TTITLE8=I'm Gonna Quit
TTITLE9=Gypsy Woman
TTITLE10=You're Gonna Miss Me
TTITLE11=Dig That Crazy Chick
TTITLE12=Lover Not A Fighter
EXTD=
EXTT0=
EXTT1=
EXTT2=
EXTT3=
EXTT4=
EXTT5=
EXTT6=
EXTT7=
EXTT8=
EXTT9=
EXTT10=
EXTT11=
EXTT12=
PLAYORDER=
